<svg width="128" height="53" viewBox="0 0 128 53" fill="none" xmlns="http://www.w3.org/2000/svg">
<path d="M0.911051 52V44.2443L19.0325 27.4652C20.5737 25.9737 21.8663 24.6314 22.9103 23.4382C23.9709 22.245 24.7747 21.0767 25.3216 19.9332C25.8684 18.7732 26.1419 17.522 26.1419 16.1797C26.1419 14.6882 25.8021 13.4039 25.1227 12.3267C24.4432 11.233 23.5152 10.3961 22.3386 9.81605C21.162 9.21946 19.828 8.92116 18.3365 8.92116C16.7787 8.92116 15.4198 9.23603 14.2598 9.86577C13.0997 10.4955 12.2048 11.3987 11.5751 12.5753C10.9454 13.7519 10.6305 15.1522 10.6305 16.7763H0.413891C0.413891 13.4453 1.16792 10.5535 2.67597 8.10085C4.18401 5.6482 6.29694 3.75071 9.01474 2.40838C11.7325 1.06605 14.8646 0.394884 18.4111 0.394884C22.0569 0.394884 25.2304 1.04119 27.9316 2.33381C30.6495 3.60985 32.7624 5.38305 34.2704 7.65341C35.7785 9.92377 36.5325 12.5256 36.5325 15.4588C36.5325 17.3812 36.1513 19.2786 35.389 21.1513C34.6433 23.0239 33.3093 25.1037 31.3869 27.3906C29.4646 29.661 26.755 32.3871 23.2584 35.5689L15.8258 42.8523V43.2003H37.2037V52H0.911051ZM63.5966 52.696C60.0833 52.696 56.9512 52.0497 54.2003 50.7571C51.4659 49.4645 49.295 47.683 47.6875 45.4126C46.08 43.1423 45.2431 40.5405 45.1769 37.6072H55.6172C55.7332 39.5793 56.5618 41.1785 58.103 42.4048C59.6442 43.6312 61.4754 44.2443 63.5966 44.2443C65.2869 44.2443 66.7784 43.8714 68.071 43.1257C69.3802 42.3634 70.3994 41.3111 71.1286 39.9688C71.8743 38.6098 72.2472 37.0521 72.2472 35.2955C72.2472 33.5057 71.866 31.9313 71.1037 30.5724C70.358 29.2135 69.3222 28.1529 67.9965 27.3906C66.6707 26.6283 65.1544 26.2389 63.4474 26.2223C61.956 26.2223 60.5059 26.5289 59.0973 27.142C57.7053 27.7552 56.6198 28.5921 55.8409 29.6527L46.2706 27.9375L48.6818 1.09091H79.804V9.89062H57.5561L56.2386 22.6428H56.5369C57.4318 21.3833 58.7824 20.3393 60.5888 19.5107C62.3951 18.6821 64.4169 18.2678 66.6541 18.2678C69.7199 18.2678 72.4543 18.9886 74.8573 20.4304C77.2602 21.8722 79.1577 23.8525 80.5497 26.3714C81.9418 28.8738 82.6295 31.7573 82.6129 35.022C82.6295 38.4524 81.8341 41.5017 80.2266 44.1697C78.6357 46.8213 76.4067 48.9093 73.5398 50.4339C70.6894 51.942 67.375 52.696 63.5966 52.696ZM105.333 44.2443V9.04545H114.232V44.2443H105.333ZM92.1832 31.0945V22.1953H127.382V31.0945H92.1832Z" fill="#478E64"/>
</svg>
