<svg width="101" height="101" viewBox="0 0 101 101" fill="none" xmlns="http://www.w3.org/2000/svg">
<path fill-rule="evenodd" clip-rule="evenodd" d="M96.8177 50.0869C96.8177 75.4903 76.2146 96.0869 50.7956 96.0869C25.3766 96.0869 4.77344 75.4903 4.77344 50.0869C4.77344 24.6835 25.3766 4.08691 50.7956 4.08691C76.2146 4.08691 96.8177 24.6835 96.8177 50.0869ZM100.818 50.0869C100.818 77.7011 78.422 100.087 50.7956 100.087C23.1691 100.087 0.773438 77.7011 0.773438 50.0869C0.773438 22.4727 23.1691 0.0869141 50.7956 0.0869141C78.422 0.0869141 100.818 22.4727 100.818 50.0869ZM51.7079 28.5971C51.4871 28.5128 51.2435 28.5095 51.0204 28.5877L19.3397 39.6988C18.9481 39.8362 18.6821 40.2011 18.671 40.6159C18.66 41.0307 18.9063 41.4093 19.2901 41.5672L27.0443 44.7587C26.0672 46.4886 25.4793 47.6912 25.1523 48.8038C24.8067 49.9794 24.7685 51.0002 24.7846 52.3213C24.7847 52.327 24.7848 52.3327 24.7849 52.3384C23.153 52.5553 21.8939 53.9519 21.8939 55.6425C21.8939 56.9172 22.6098 58.0249 23.6617 58.5856C23.6105 58.7063 23.5823 58.8392 23.5827 58.9787C23.591 61.8963 23.216 63.8172 22.3792 65.3875C21.538 66.9661 20.1716 68.3028 17.963 69.9424C17.6961 70.1406 17.5451 70.4584 17.5601 70.7906C17.5751 71.1227 17.7542 71.4256 18.038 71.5988L22.4188 74.2737C22.8038 74.5088 23.2986 74.457 23.6266 74.1472C25.7372 72.1534 27.2591 70.3157 27.9799 67.8993C28.6958 65.499 28.5797 62.6693 27.7513 58.7681C27.7001 58.527 27.566 58.3249 27.3853 58.1851C28.1061 57.5736 28.5635 56.6614 28.5635 55.6425C28.5635 54.3377 27.8135 53.208 26.721 52.6607C26.7634 52.5476 26.786 52.4249 26.7844 52.2969C26.7689 51.0254 26.8122 50.2485 27.0711 49.3679C27.3381 48.4594 27.8506 47.3882 28.8772 45.5808C28.8904 45.5575 28.9026 45.5339 28.9138 45.51C29.1084 45.5509 29.3122 45.5331 29.4987 45.4566L51.1015 36.5978C51.8142 36.4435 52.3508 36.7298 52.5769 37.0205C52.692 37.1684 52.7001 37.2752 52.6948 37.3182C52.6925 37.3377 52.6812 37.4219 52.532 37.5392L33.7463 45.2711L33.7327 45.2767L33.7203 45.282C33.5908 45.3387 33.4792 45.4197 33.3885 45.5175C33.3002 45.6124 33.2292 45.726 33.1822 45.8549L33.1778 45.8674L33.1728 45.8819C33.0964 46.1112 33.1077 46.3485 33.1884 46.5576C33.1945 46.5735 33.2011 46.5893 33.208 46.6049C33.2642 46.7311 33.3436 46.8402 33.439 46.9292C33.5343 47.0183 33.6486 47.09 33.7784 47.1373C33.7893 47.1413 33.8003 47.1451 33.8113 47.1487L50.4795 52.7023C50.6864 52.7712 50.9102 52.7706 51.1167 52.7006L82.2416 42.145C82.6409 42.0096 82.9123 41.6384 82.9203 41.2168C82.9282 40.7953 82.6709 40.4141 82.277 40.2638L51.7079 28.5971ZM25.7738 58.9315C25.7106 58.9419 25.6468 58.9505 25.5825 58.9573C25.5826 58.9625 25.5827 58.9677 25.5827 58.9729C25.5915 62.0492 25.2006 64.3457 24.1442 66.3281C23.2805 67.949 22.0109 69.2847 20.3204 70.6491L22.8017 72.1642C24.5049 70.4834 25.5479 69.0555 26.0633 67.3276C26.6366 65.4054 26.5987 62.9689 25.7949 59.1835C25.7769 59.0987 25.7702 59.0142 25.7738 58.9315ZM53.5939 39.2386C53.5614 39.2614 53.5273 39.2824 53.4916 39.3015C53.4551 39.3211 53.4178 39.3383 53.3799 39.353L36.9888 46.0993L50.7928 50.6986L78.9705 41.1425L51.3369 30.5962L22.4794 40.7171L29.12 43.4503L50.4162 34.7172C50.4607 34.699 50.5065 34.684 50.5531 34.6723C52.0321 34.3027 53.4156 34.8415 54.1554 35.7922C54.5266 36.2694 54.7617 36.8917 54.6801 37.5604C54.5969 38.2425 54.2021 38.8262 53.5939 39.2386ZM31.4947 47.9873C31.3775 47.9691 31.2605 47.9724 31.1486 47.9946C31.0019 48.0234 30.8668 48.0843 30.7507 48.1696C30.6344 48.2549 30.5357 48.3657 30.4643 48.4972C30.4097 48.5972 30.3717 48.7075 30.3539 48.8244C30.3449 48.8829 30.3412 48.9413 30.3425 48.9991V52.8647C30.3425 53.02 30.3787 53.1732 30.4482 53.3121L32.385 57.184L30.5618 59.4621C30.2167 59.8932 30.2865 60.5225 30.7177 60.8676C30.9756 61.0741 31.3043 61.132 31.6008 61.0531C39.354 64.7533 45.4477 66.6079 51.5486 66.4337C57.6848 66.2585 63.6963 64.0346 71.2871 59.8516C71.6062 59.6758 71.8044 59.3402 71.8044 58.9758V48.9758C71.8044 48.6588 71.6541 48.3606 71.3994 48.172C71.1446 47.9834 70.8155 47.9268 70.5123 48.0194L50.7997 54.04L31.6644 48.0287C31.6098 48.0102 31.5531 47.9962 31.4947 47.9873ZM32.3425 52.6285V50.3381L50.4959 56.0409C50.6884 56.1014 50.8947 56.1022 51.0877 56.0433L69.8044 50.3268V58.3833C62.5744 62.3182 57.0272 64.2764 51.4916 64.4345C46.0063 64.5912 40.4089 62.9839 33.0659 59.534L34.3465 57.934C34.5903 57.6294 34.6346 57.2107 34.4601 56.8618L32.3425 52.6285ZM25.5635 55.6425C25.5635 55.8253 25.4149 55.9758 25.2287 55.9758C25.0425 55.9758 24.8939 55.8253 24.8939 55.6425C24.8939 55.4596 25.0425 55.3091 25.2287 55.3091C25.4149 55.3091 25.5635 55.4596 25.5635 55.6425Z" fill="#478E64"/>
</svg>
