<svg width="101" height="101" viewBox="0 0 101 101" fill="none" xmlns="http://www.w3.org/2000/svg">
<path fill-rule="evenodd" clip-rule="evenodd" d="M50.3882 96.0869C75.7933 96.0869 96.3882 75.492 96.3882 50.0869C96.3882 24.6818 75.7933 4.08691 50.3882 4.08691C24.9831 4.08691 4.38818 24.6818 4.38818 50.0869C4.38818 75.492 24.9831 96.0869 50.3882 96.0869ZM50.3882 100.087C78.0024 100.087 100.388 77.7011 100.388 50.0869C100.388 22.4727 78.0024 0.0869141 50.3882 0.0869141C22.7739 0.0869141 0.388184 22.4727 0.388184 50.0869C0.388184 77.7011 22.7739 100.087 50.3882 100.087ZM50.3882 90.3091C72.6023 90.3091 90.6104 72.301 90.6104 50.0869C90.6104 27.8728 72.6023 9.86469 50.3882 9.86469C28.1741 9.86469 10.166 27.8728 10.166 50.0869C10.166 72.301 28.1741 90.3091 50.3882 90.3091ZM50.3882 92.3091C73.7069 92.3091 92.6104 73.4056 92.6104 50.0869C92.6104 26.7682 73.7069 7.86469 50.3882 7.86469C27.0695 7.86469 8.16596 26.7682 8.16596 50.0869C8.16596 73.4056 27.0695 92.3091 50.3882 92.3091ZM49.666 45.2536V19.3647H51.1104V45.2536H49.666ZM48.166 17.8647H49.666H51.1104H52.6104V19.3647V45.2536V46.2371C53.7155 46.8763 54.5198 47.9778 54.759 49.2771L55.3434 49.6144L75.0699 61.0036L76.369 61.7536L75.619 63.0526L74.8968 64.3035L74.1468 65.6026L72.8477 64.8526L53.2143 53.5172C52.4462 54.1508 51.4616 54.5314 50.3882 54.5314C47.9336 54.5314 45.9437 52.5415 45.9437 50.0869C45.9437 48.4418 46.8375 47.0055 48.166 46.2371V45.2536V19.3647V17.8647ZM54.2086 52.3592L73.5977 63.5535L74.3199 62.3026L54.7392 50.9977C54.6376 51.4857 54.4559 51.9443 54.2086 52.3592ZM52.8326 50.0869C52.8326 51.4369 51.7382 52.5314 50.3882 52.5314C49.0382 52.5314 47.9437 51.4369 47.9437 50.0869C47.9437 48.7369 49.0382 47.6425 50.3882 47.6425C51.7382 47.6425 52.8326 48.7369 52.8326 50.0869ZM50.3882 11.3091C50.9405 11.3091 51.3882 11.7569 51.3882 12.3091V15.6425C51.3882 16.1948 50.9405 16.6425 50.3882 16.6425C49.8359 16.6425 49.3882 16.1948 49.3882 15.6425V12.3091C49.3882 11.7569 49.8359 11.3091 50.3882 11.3091ZM51.3882 84.5314C51.3882 83.9791 50.9405 83.5314 50.3882 83.5314C49.8359 83.5314 49.3882 83.9791 49.3882 84.5314V87.8647C49.3882 88.417 49.8359 88.8647 50.3882 88.8647C50.9405 88.8647 51.3882 88.417 51.3882 87.8647V84.5314ZM16.9437 50.0869C16.9437 50.6392 16.496 51.0869 15.9437 51.0869H12.6104C12.0581 51.0869 11.6104 50.6392 11.6104 50.0869C11.6104 49.5346 12.0581 49.0869 12.6104 49.0869H15.9437C16.496 49.0869 16.9437 49.5346 16.9437 50.0869ZM88.166 51.0869C88.7182 51.0869 89.166 50.6392 89.166 50.0869C89.166 49.5346 88.7182 49.0869 88.166 49.0869H84.8326C84.2803 49.0869 83.8326 49.5346 83.8326 50.0869C83.8326 50.6392 84.2803 51.0869 84.8326 51.0869H88.166ZM84.141 31.8091C84.4171 32.2874 84.2532 32.899 83.7749 33.1752L80.8882 34.8418C80.4099 35.118 79.7983 34.9541 79.5222 34.4758C79.246 33.9975 79.4099 33.3859 79.8882 33.1098L82.7749 31.4431C83.2532 31.167 83.8648 31.3308 84.141 31.8091ZM21.5527 68.7307C22.031 68.4546 22.1949 67.843 21.9187 67.3647C21.6426 66.8864 21.031 66.7225 20.5527 66.9987L17.666 68.6653C17.1877 68.9415 17.0238 69.5531 17.2999 70.0314C17.5761 70.5097 18.1877 70.6735 18.666 70.3974L21.5527 68.7307ZM21.6053 33.8341C21.2693 34.2724 20.6416 34.3554 20.2032 34.0195L17.5576 31.9917C17.1193 31.6557 17.0363 31.028 17.3722 30.5897C17.7082 30.1514 18.3359 30.0684 18.7743 30.4043L21.4199 32.4321C21.8582 32.768 21.9412 33.3957 21.6053 33.8341ZM82.4255 69.575C82.8638 69.911 83.4915 69.828 83.8275 69.3896C84.1634 68.9513 84.0805 68.3236 83.6421 67.9876L80.9965 65.9599C80.5581 65.6239 79.9304 65.7069 79.5945 66.1453C79.2585 66.5836 79.3415 67.2113 79.7798 67.5473L82.4255 69.575ZM69.2215 83.8397C68.7432 84.1158 68.1316 83.952 67.8555 83.4737L66.1888 80.5869C65.9127 80.1086 66.0766 79.497 66.5549 79.2209C67.0331 78.9448 67.6447 79.1086 67.9209 79.5869L69.5875 82.4737C69.8637 82.952 69.6998 83.5636 69.2215 83.8397ZM32.2999 21.2515C32.5761 21.7297 33.1877 21.8936 33.666 21.6175C34.1443 21.3413 34.3081 20.7297 34.032 20.2515L32.3653 17.3647C32.0892 16.8864 31.4776 16.7225 30.9993 16.9987C30.521 17.2748 30.3571 17.8864 30.6333 18.3647L32.2999 21.2515ZM67.6271 21.5149C67.1618 21.2173 67.026 20.5989 67.3236 20.1336L69.12 17.3258C69.4176 16.8606 70.036 16.7247 70.5013 17.0223C70.9665 17.32 71.1023 17.9384 70.8047 18.4036L69.0083 21.2115C68.7107 21.6767 68.0923 21.8126 67.6271 21.5149ZM31.768 83.467C31.4704 83.9322 31.6063 84.5506 32.0715 84.8483C32.5367 85.1459 33.1551 85.01 33.4528 84.5448L35.2491 81.737C35.5468 81.2717 35.4109 80.6533 34.9457 80.3557C34.4805 80.058 33.8621 80.1939 33.5644 80.6591L31.768 83.467Z" fill="#478E64"/>
</svg>
