<svg width="101" height="101" viewBox="0 0 101 101" fill="none" xmlns="http://www.w3.org/2000/svg">
<path fill-rule="evenodd" clip-rule="evenodd" d="M96.252 50.0869C96.252 62.2499 91.5314 73.3103 83.8223 81.536L78.7909 76.5045C85.2145 69.5684 89.1408 60.2862 89.1408 50.0869C89.1408 39.8877 85.2145 30.6054 78.7909 23.6693L83.8223 18.6379C91.5314 26.8635 96.252 37.9239 96.252 50.0869ZM76.6695 78.6258L81.701 83.6573C73.4753 91.3663 62.4149 96.0869 50.252 96.0869C38.089 96.0869 27.0286 91.3663 18.8029 83.6573L23.8344 78.6258C30.7705 85.0495 40.0527 88.9758 50.252 88.9758C60.4512 88.9758 69.7334 85.0495 76.6695 78.6258ZM76.6695 21.548L81.701 16.5165C73.4753 8.80751 62.4149 4.08691 50.252 4.08691C38.089 4.08691 27.0286 8.80751 18.8029 16.5165L23.8344 21.548C30.7705 15.1244 40.0527 11.198 50.252 11.198C60.4512 11.198 69.7334 15.1244 76.6695 21.548ZM21.713 76.5045L16.6816 81.536C8.97255 73.3103 4.25195 62.2499 4.25195 50.0869C4.25195 37.9239 8.97255 26.8635 16.6816 18.6379L21.713 23.6693C15.2894 30.6054 11.3631 39.8877 11.3631 50.0869C11.3631 60.2862 15.2894 69.5684 21.713 76.5045ZM100.252 50.0869C100.252 77.7011 77.8662 100.087 50.252 100.087C22.6377 100.087 0.251953 77.7011 0.251953 50.0869C0.251953 22.4727 22.6377 0.0869141 50.252 0.0869141C77.8662 0.0869141 100.252 22.4727 100.252 50.0869ZM52.6133 84.8971C51.8329 84.9493 51.0455 84.9758 50.252 84.9758C49.3145 84.9758 48.3857 84.9388 47.467 84.8663C46.7305 71.9075 44.5806 62.4769 39.9846 54.6925C35.4483 47.0093 28.62 41.0847 18.816 34.9352C19.5375 33.441 20.3624 32.006 21.2814 30.6397C32.5299 36.2333 41.5717 38.9651 50.4194 38.8789C59.5451 38.7899 68.2763 35.7045 78.8172 30.0503C79.8725 31.5519 80.8123 33.1406 81.6239 34.8033C70.7214 41.9419 63.6037 48.5329 59.1487 56.4259C54.7302 64.2542 53.0208 73.2047 52.6133 84.8971ZM55.6275 84.5642C56.0548 73.314 57.7323 65.0386 61.7613 57.9005C65.8256 50.6997 72.3718 44.4992 82.838 37.5953C84.3256 41.4736 85.1408 45.6851 85.1408 50.0869C85.1408 67.5274 72.3439 81.979 55.6275 84.5642ZM15.3631 50.0869C15.3631 67.3753 27.9378 81.7267 44.44 84.4939C43.6873 72.0469 41.5906 63.3134 37.4012 56.2178C33.269 49.2189 27.0123 43.6632 17.6164 37.7251C16.1602 41.5675 15.3631 45.7341 15.3631 50.0869ZM76.962 27.6401C70.5621 20.0325 60.9716 15.198 50.252 15.198C39.2773 15.198 29.4862 20.2653 23.0905 28.1877C33.9044 33.5156 42.3255 35.9576 50.3902 35.879C58.6995 35.798 66.8129 33.0396 76.962 27.6401ZM50.252 55.9758C53.5043 55.9758 56.1408 53.3393 56.1408 50.0869C56.1408 46.8346 53.5043 44.198 50.252 44.198C46.9996 44.198 44.3631 46.8346 44.3631 50.0869C44.3631 53.3393 46.9996 55.9758 50.252 55.9758ZM50.252 58.9758C55.1612 58.9758 59.1408 54.9961 59.1408 50.0869C59.1408 45.1777 55.1612 41.198 50.252 41.198C45.3428 41.198 41.3631 45.1777 41.3631 50.0869C41.3631 54.9961 45.3428 58.9758 50.252 58.9758Z" fill="#478E64"/>
</svg>
